<svg width="16" height="16" viewBox="0 0 16 16" fill="none" xmlns="http://www.w3.org/2000/svg">
<path fill-rule="evenodd" clip-rule="evenodd" d="M8.86225 4.86189C9.1226 4.60154 9.54471 4.60154 9.80506 4.86189L12.4717 7.52855C12.7321 7.7889 12.7321 8.21101 12.4717 8.47136L9.80506 11.138C9.54471 11.3984 9.1226 11.3984 8.86225 11.138C8.6019 10.8777 8.6019 10.4556 8.86225 10.1952L11.0575 7.99996L8.86225 5.8047C8.6019 5.54435 8.6019 5.12224 8.86225 4.86189Z" fill="#026D00"/>
<path fill-rule="evenodd" clip-rule="evenodd" d="M4 8.00004C4 7.63185 4.29848 7.33337 4.66667 7.33337H12C12.3682 7.33337 12.6667 7.63185 12.6667 8.00004C12.6667 8.36823 12.3682 8.66671 12 8.66671H4.66667C4.29848 8.66671 4 8.36823 4 8.00004Z" fill="#026D00"/>
</svg>
