<svg width="385" height="491" viewBox="0 0 385 491" fill="none" xmlns="http://www.w3.org/2000/svg">
<path d="M192.5 0C141.464 0.0580007 92.5341 20.394 56.4459 56.5467C20.3577 92.6993 0.0578973 141.716 0 192.844C0 357.857 175 482.548 182.438 487.807C185.418 489.795 188.919 490.856 192.5 490.856C196.081 490.856 199.582 489.795 202.563 487.807C210 482.548 385 357.857 385 192.844C384.942 141.716 364.642 92.6993 328.554 56.5467C292.466 20.394 243.536 0.0580007 192.5 0V0ZM192.5 122.719C206.345 122.719 219.878 126.832 231.39 134.537C242.901 142.242 251.873 153.194 257.172 166.008C262.47 178.822 263.856 192.922 261.155 206.524C258.454 220.127 251.787 232.622 241.997 242.43C232.208 252.237 219.735 258.916 206.156 261.621C192.578 264.327 178.503 262.938 165.712 257.631C152.921 252.323 141.989 243.335 134.297 231.803C126.605 220.271 122.5 206.713 122.5 192.844C122.5 174.245 129.875 156.409 143.003 143.258C156.13 130.107 173.935 122.719 192.5 122.719V122.719Z" fill="#026D00"/>
</svg>
