<svg width="478" height="411" viewBox="0 0 478 411" fill="none" xmlns="http://www.w3.org/2000/svg">
<path d="M405.674 267.656C389.854 267.686 374.489 272.955 361.98 282.64C349.471 292.324 340.521 305.879 336.529 321.188H120.174C101.244 321.188 83.0893 313.668 69.7039 300.282C56.3185 286.897 48.7987 268.742 48.7987 249.812C48.7987 230.883 56.3185 212.728 69.7039 199.343C83.0893 185.957 101.244 178.437 120.174 178.438H334.299C357.961 178.437 380.654 169.038 397.386 152.306C414.118 135.574 423.517 112.881 423.517 89.2188C423.517 65.5565 414.118 42.8633 397.386 26.1316C380.654 9.39981 357.961 0 334.299 0L17.8438 0C13.1113 0 8.57271 1.87996 5.22635 5.22632C1.88 8.57267 3.48091e-05 13.1113 3.48091e-05 17.8438C3.48091e-05 22.5762 1.88 27.1148 5.22635 30.4612C8.57271 33.8075 13.1113 35.6875 17.8438 35.6875H334.299C348.496 35.6875 362.112 41.3274 372.151 51.3664C382.19 61.4055 387.83 75.0214 387.83 89.2188C387.83 103.416 382.19 117.032 372.151 127.071C362.112 137.11 348.496 142.75 334.299 142.75H120.174C91.7789 142.75 64.5472 154.03 44.469 174.108C24.3909 194.186 13.1112 221.418 13.1112 249.812C13.1112 278.207 24.3909 305.439 44.469 325.517C64.5472 345.595 91.7789 356.875 120.174 356.875H336.529C339.866 369.799 346.76 381.529 356.429 390.731C366.097 399.934 378.153 406.241 391.226 408.936C404.299 411.631 417.866 410.607 430.386 405.978C442.906 401.35 453.877 393.304 462.054 382.754C470.23 372.203 475.284 359.571 476.642 346.292C478 333.014 475.607 319.62 469.736 307.633C463.864 295.646 454.748 285.546 443.424 278.479C432.1 271.413 419.022 267.663 405.674 267.656Z" fill="#026D00"/>
</svg>
