<svg width="105" height="70" viewBox="0 0 105 70" fill="none" xmlns="http://www.w3.org/2000/svg">
<g clip-path="url(#clip0_102_207)">
<path d="M104.981 56.34C104.824 52.2831 103.703 48.3177 101.647 44.5387C99.6572 40.8935 96.8371 37.4925 93.2623 34.4313C92.6008 33.8651 91.9167 33.314 91.2098 32.778V6.58992e-06H78.5734V25.7701C75.6674 24.6348 72.67 23.7632 69.6155 23.1652V6.58992e-06H56.9791V17.8301C53.4673 15.3076 50.6394 12.2165 48.0217 9.00943V6.58992e-06H35.3853V39.2454C32.3073 38.5405 29.3062 37.5197 26.4274 36.1984V-0.00170898H13.791V27.4023C10.5852 24.023 7.59012 19.3771 7.2735 13.6594C7.25511 13.3311 7.24563 0.334557 7.24563 6.58992e-06H-0.000976562C-0.000976562 0.33227 0.00571806 13.3283 0.018539 13.6594C0.175735 17.7163 1.29672 21.6817 3.35587 25.4613C5.34256 29.1071 8.16261 32.5075 11.7374 35.567C12.3989 36.1336 13.083 36.6847 13.7899 37.2203V70.0023H26.4263V44.2293C29.3323 45.3645 32.3297 46.2357 35.3842 46.8331V70.0023H48.0217V52.1693C51.5336 54.6925 54.3614 57.7829 56.9791 60.9906V70.0023H69.6155V30.7546C72.6936 31.4594 75.6947 32.4804 78.5734 33.8022V70.0023H91.2098V42.5972C94.4156 45.9793 97.4107 50.6229 97.7262 56.34C97.7446 56.6683 97.7541 69.6649 97.7541 70H105.001C105.001 69.6677 104.994 56.6712 104.981 56.34ZM54.4963 47.8705C52.4851 46.1892 50.3163 44.7166 48.0217 43.4744V19.8998C48.8144 20.6627 49.6383 21.4084 50.5045 22.1301C52.5157 23.812 54.6845 25.2851 56.9791 26.5279V50.1008C56.1864 49.3368 55.3609 48.591 54.4963 47.8705Z" fill="#E6F5FD"/>
</g>
<defs>
<clipPath id="clip0_102_207">
<rect width="105" height="70" fill="white"/>
</clipPath>
</defs>
</svg>
